<svg xmlns="http://www.w3.org/2000/svg" width="1024" height="1024" viewBox="0 0 1024 1024" version="1.1"><path d="M 709.500 145.641 C 699.007 147.784, 692.899 149.652, 687.727 152.299 C 681.261 155.608, 670.092 165.343, 667.259 170.138 C 665.271 173.505, 664.676 173.603, 661.154 171.153 C 647.438 161.606, 628.131 155.265, 610 154.351 C 586.824 153.183, 569.236 158.263, 550.500 171.538 C 538.770 179.849, 523.251 197.755, 516.508 210.759 C 515.009 213.651, 513.468 216.211, 513.085 216.447 C 512.702 216.684, 511.521 215.218, 510.460 213.189 C 502.086 197.179, 490.736 184.077, 476.656 174.167 C 462.551 164.240, 449.699 159.684, 435.500 159.576 L 425.500 159.500 425.153 164 C 424.713 169.726, 426.837 184.693, 428.576 188.106 C 429.532 189.984, 431.245 191.062, 434.701 191.960 C 444.828 194.593, 461.734 201.435, 467 205.033 C 477.623 212.290, 483.801 221.474, 491.104 240.863 C 493.641 247.602, 499.480 255.174, 503.865 257.413 C 516.954 264.098, 528.622 256.042, 537.051 234.500 C 545.617 212.606, 561.947 197.744, 585 190.859 C 591.300 188.978, 594.820 188.625, 607 188.651 C 617.318 188.674, 623.086 189.148, 627 190.296 C 630.025 191.183, 633.625 192.199, 635 192.554 C 641.549 194.244, 657.621 202.357, 664.031 207.209 C 669.549 211.385, 671.722 211.895, 672.729 209.250 C 674.329 205.043, 683.667 192.591, 688.608 188.076 C 695.397 181.871, 702.314 178.486, 712.465 176.401 C 719.860 174.882, 721.148 174.884, 730.465 176.431 C 741.072 178.192, 754.055 182.259, 770.415 188.947 C 775.869 191.176, 781.066 193, 781.965 193 C 782.864 193, 784.028 193.397, 784.550 193.883 C 785.072 194.368, 788.425 195.533, 792 196.472 C 806.362 200.244, 814.789 201.896, 823.500 202.649 C 827.350 202.982, 831.063 203.702, 831.750 204.250 C 832.632 204.952, 832.998 208.961, 832.993 217.872 C 832.987 230.938, 834.085 241.435, 836.720 253.500 C 837.562 257.350, 838.644 262.300, 839.125 264.500 C 843.291 283.531, 844.216 304.532, 841.374 315.500 C 838.532 326.463, 838.526 326.361, 842.377 331.407 C 844.338 333.976, 847.803 339.886, 850.076 344.539 C 852.350 349.193, 854.582 353, 855.037 353 C 856.872 353, 862.783 342.265, 865.223 334.500 C 868.382 324.446, 871 306.512, 871 294.920 C 871 286.480, 868.535 262.144, 866.956 255 C 866.409 252.525, 865.522 247.575, 864.984 244 C 864.447 240.425, 863.562 234.800, 863.018 231.500 C 861.008 219.304, 858.985 195.186, 859.106 184.840 C 859.174 178.977, 858.890 173.631, 858.475 172.959 C 857.934 172.084, 855.768 171.920, 850.822 172.380 C 840.062 173.380, 815.814 170.754, 802 167.093 C 794.863 165.201, 785.173 162.129, 773.500 158.058 C 749.398 149.651, 743.489 147.925, 733.845 146.477 C 724.588 145.086, 713.994 144.722, 709.500 145.641 M 278 149.962 C 276.625 150.405, 273.250 151.468, 270.500 152.324 C 267.750 153.181, 260.100 155.744, 253.500 158.019 C 223.189 168.471, 208.964 171.227, 185.227 171.249 C 175.727 171.258, 167.756 171.586, 167.514 171.978 C 167.272 172.369, 167.596 177.914, 168.234 184.299 C 170.221 204.185, 165.696 236.436, 157.052 264 C 153.750 274.529, 152.654 283.094, 152.637 298.500 C 152.622 311.136, 152.984 315.551, 154.354 319.500 C 157.297 327.977, 162.877 338.346, 168.564 345.907 C 171.554 349.880, 174 353.589, 174 354.148 C 174 354.707, 172.625 358.298, 170.944 362.128 C 163.443 379.217, 158.972 398.920, 159.060 414.500 C 159.202 439.656, 169.056 462.347, 188.915 483.250 C 196.538 491.274, 211.802 503.765, 217.904 506.972 C 220.213 508.185, 219.957 508.404, 211.404 512.524 C 193.314 521.240, 176.902 538.927, 167 560.381 C 162.242 570.691, 158.802 583.642, 159.196 589.768 L 159.500 594.500 163.970 594.818 C 170.574 595.288, 188.303 593.148, 189.558 591.729 C 190.156 591.053, 191.206 588.177, 191.892 585.338 C 194.441 574.791, 203.053 561.474, 212.432 553.576 C 222.353 545.222, 229.182 541.250, 249.500 532.010 C 253.350 530.260, 257.512 527.888, 258.750 526.739 L 261 524.651 261.015 527.076 C 261.076 536.904, 272.004 551.050, 284.757 557.809 C 288.191 559.628, 291 561.446, 291 561.847 C 291 562.249, 290.100 564.342, 289 566.500 C 287.900 568.658, 287 571.201, 287 572.152 C 287 573.104, 286.612 574.122, 286.137 574.415 C 285.663 574.709, 284.702 577.098, 284.003 579.724 C 283.303 582.351, 281.802 587.425, 280.667 591 C 279.020 596.188, 278.604 600.123, 278.608 610.500 C 278.612 622.481, 278.823 623.959, 281.299 629.357 C 285.102 637.651, 297.230 649.968, 303.985 652.397 C 311.272 655.018, 323.888 654.393, 327.238 651.246 C 328.553 650.011, 329.987 649, 330.426 649 C 330.864 649, 333.422 647.158, 336.111 644.907 L 341 640.814 341.009 643.657 C 341.030 650.794, 343.180 669.855, 344.425 673.956 C 346.083 679.413, 348.650 685.096, 351.902 690.505 C 354.471 694.779, 363.888 705, 365.256 705 C 365.710 705, 367.300 705.899, 368.790 706.998 C 374.034 710.866, 382.101 713.066, 394 713.874 C 411.374 715.055, 431.950 714.025, 434.661 711.839 C 436.230 710.574, 436.630 711.506, 437.462 718.371 C 438.865 729.936, 443.264 739.254, 451.041 747.130 C 458.770 754.957, 463.512 757.139, 474.106 757.741 C 484.194 758.315, 487.492 757.174, 495.745 750.253 C 501.013 745.835, 518.330 727.210, 523 720.941 C 525.276 717.885, 551.333 691.375, 555.084 688.299 C 555.955 687.585, 557.193 687, 557.834 687 C 558.475 687, 559 686.550, 559 686 C 559 685.450, 559.440 685, 559.979 685 C 560.575 685, 561.064 692.715, 561.229 704.737 C 561.474 722.565, 561.668 724.506, 563.239 724.808 C 564.382 725.028, 565.367 724.175, 566.114 722.321 C 566.738 720.770, 567.609 718.600, 568.049 717.500 C 568.489 716.400, 569.077 714.375, 569.355 713 C 569.633 711.625, 570.333 708.700, 570.911 706.500 C 571.489 704.300, 572.266 696.735, 572.638 689.690 L 573.314 676.880 577.407 674.125 C 587.676 667.215, 602.072 659.784, 608.637 658.007 C 611.311 657.282, 613.950 656.389, 614.500 656.022 C 615.050 655.654, 618.650 654.755, 622.500 654.023 C 626.350 653.291, 630.307 652.199, 631.294 651.596 C 632.757 650.702, 633.445 650.961, 635.022 653 C 636.085 654.375, 637.613 656.850, 638.417 658.500 C 640.758 663.306, 649.594 672.578, 653.713 674.551 C 657.956 676.583, 664.974 678.192, 669.500 678.169 C 675.254 678.141, 686.303 676.032, 688.607 674.522 C 689.885 673.685, 691.387 673, 691.945 673 C 694.044 673, 703.723 666.048, 706.093 662.838 C 710.878 656.359, 715 646.044, 715 640.551 C 715 638.818, 715.473 636.927, 716.052 636.348 C 718.350 634.050, 716.498 606.289, 710.993 560.500 C 710.464 556.100, 709.301 545.525, 708.408 537 C 707.515 528.475, 706.411 520.600, 705.954 519.500 C 705.497 518.400, 704.608 511.200, 703.980 503.500 C 703.351 495.800, 702.460 488.600, 702 487.500 C 701.540 486.400, 700.647 479.200, 700.016 471.500 C 699.385 463.800, 698.451 456.375, 697.941 455 C 697.430 453.625, 696.820 448.450, 696.584 443.500 C 696.349 438.550, 695.461 428.200, 694.611 420.500 C 693.761 412.800, 693.050 404.002, 693.032 400.950 C 693.015 397.897, 692.605 394.972, 692.122 394.450 C 691.040 393.279, 689.611 371, 690.618 371 C 691.016 371, 692.137 371.719, 693.108 372.598 C 695.165 374.459, 697 373.699, 697 370.986 C 697 369.943, 695.619 366.032, 693.931 362.295 C 692.243 358.558, 690.058 353.700, 689.076 351.500 C 687.206 347.314, 683.356 338.099, 681.869 334.250 C 681.391 333.012, 680.573 330.988, 680.052 329.750 C 679.530 328.512, 678.961 326.600, 678.788 325.500 C 678.022 320.639, 671.339 325.815, 671.041 331.500 C 670.984 332.600, 670.329 334.301, 669.586 335.280 C 668.241 337.052, 668.366 348.557, 669.767 352 C 670.404 353.566, 672.832 372.586, 675.448 396.500 C 676.290 404.200, 677.451 411.929, 678.027 413.676 C 678.604 415.422, 679.110 420.372, 679.153 424.676 C 679.195 428.979, 679.516 432.950, 679.865 433.500 C 680.475 434.461, 681.973 445.733, 685.909 479 C 686.917 487.525, 687.855 494.500, 687.993 494.500 C 688.243 494.500, 690.439 512.033, 693.753 540.500 C 694.714 548.750, 695.839 556.022, 696.253 556.660 C 696.668 557.298, 696.772 558.432, 696.485 559.180 C 696.197 559.928, 696.442 564.131, 697.027 568.520 C 698.953 582.962, 702.082 612.256, 703.191 626.228 C 704.439 641.950, 704.391 642.094, 697.231 644.031 C 694.629 644.734, 692.050 645.637, 691.500 646.037 C 689.069 647.802, 669.987 650.130, 663.343 649.471 C 657.564 648.898, 649 644.913, 649 642.797 C 649 642.381, 651.025 640.175, 653.500 637.893 C 655.975 635.612, 658 633.128, 658 632.373 C 658 631.618, 658.417 631, 658.927 631 C 660.559 631, 667.721 616.429, 669.173 610.156 C 670.806 603.097, 671.346 590.946, 670.083 589.683 C 669.487 589.087, 669 587.361, 669 585.847 C 669 584.333, 668.494 581.835, 667.875 580.297 C 666.064 575.791, 664.541 572.537, 663.992 572 C 663.711 571.725, 662.230 569.570, 660.701 567.211 C 656.832 561.243, 652.786 559.008, 645.845 559.004 C 638.239 558.999, 633.031 561.862, 628.714 568.420 C 623.383 576.518, 621.786 581.577, 621.244 592.079 C 620.723 602.159, 622.498 621.833, 624.074 623.450 C 624.583 623.972, 625 625.625, 625 627.122 C 625 630.053, 625.206 629.948, 612.500 633.500 C 599.799 637.050, 594.033 639.132, 584.500 643.613 C 581.200 645.165, 577.690 646.780, 576.701 647.203 C 574.991 647.934, 574.932 646.924, 575.505 626.736 C 575.848 614.680, 575.645 599.232, 575.036 591 C 574.446 583.025, 573.859 574.981, 573.732 573.124 C 573.506 569.830, 573.632 569.713, 578.858 568.366 C 586.895 566.295, 600.562 558.373, 605.779 552.761 C 608.586 549.742, 611.486 544.228, 614.051 537.035 C 616.236 530.906, 616.593 518.535, 614.930 506.500 C 614.399 502.650, 613.274 493.200, 612.432 485.500 C 611.589 477.800, 610.509 470.600, 610.032 469.500 C 609.555 468.400, 608.619 461.887, 607.952 455.027 C 607.285 448.168, 606.381 441.868, 605.943 441.027 C 605.505 440.187, 604.597 433.425, 603.924 426 C 603.251 418.575, 602.360 412.050, 601.943 411.500 C 601.526 410.950, 600.925 406.675, 600.606 402 C 599.993 393.003, 596.427 362.500, 595.988 362.500 C 595.845 362.500, 594.871 353.950, 593.824 343.500 C 592.776 333.050, 591.668 322.363, 591.363 319.750 C 591.057 317.137, 591.062 315, 591.373 315 C 591.684 315, 593.542 315.900, 595.500 317 C 602.559 320.965, 603.585 319.169, 599.441 310.100 C 592.023 293.865, 579.467 269.733, 578.182 269.240 C 576.260 268.502, 574.438 271.100, 572.460 277.399 C 571.578 280.204, 570.393 283.456, 569.827 284.625 C 569.147 286.027, 569.129 287.388, 569.774 288.625 C 570.311 289.656, 571.299 295.225, 571.968 301 C 572.638 306.775, 573.568 312.400, 574.036 313.500 C 574.504 314.600, 575.400 320.450, 576.026 326.500 C 576.652 332.550, 577.531 338.400, 577.979 339.500 C 578.426 340.600, 579.342 347.125, 580.013 354 C 580.684 360.875, 581.608 367.214, 582.065 368.087 C 582.522 368.960, 583.127 373.235, 583.409 377.587 C 583.691 381.939, 584.857 392.475, 586 401 C 587.143 409.525, 588.874 422.575, 589.846 430 C 590.819 437.425, 591.889 444.175, 592.226 445 C 592.562 445.825, 593.358 452.350, 593.994 459.500 C 594.631 466.650, 595.522 473.400, 595.974 474.500 C 596.832 476.584, 598.169 488.386, 600.052 510.500 C 600.661 517.650, 601.668 525.255, 602.290 527.400 C 603.402 531.241, 603.356 531.356, 599.325 534.934 C 590.201 543.030, 574.477 547.682, 570.872 543.351 C 570.100 542.423, 569.196 537.941, 568.805 533.101 C 567.743 519.964, 564.480 492.688, 563.768 491 C 563.420 490.175, 562.592 483.200, 561.927 475.500 C 561.263 467.800, 560.385 461.050, 559.976 460.500 C 559.567 459.950, 558.685 453.200, 558.015 445.500 C 557.345 437.800, 556.427 430.600, 555.973 429.500 C 555.520 428.400, 554.876 423.900, 554.543 419.500 C 554.209 415.100, 553.665 409.342, 553.333 406.704 L 552.730 401.908 556.125 403.911 C 560.198 406.314, 562.557 405.423, 561.519 401.875 C 561.137 400.569, 559.534 396.800, 557.958 393.500 C 556.382 390.200, 553.673 384.350, 551.939 380.500 C 550.204 376.650, 547.772 371.250, 546.533 368.500 C 545.295 365.750, 543.714 362.038, 543.019 360.250 C 542.325 358.462, 541.362 356.933, 540.879 356.850 C 540.395 356.767, 539.584 356.655, 539.075 356.600 C 538.566 356.545, 536.991 358.207, 535.575 360.294 C 533.713 363.039, 532.999 365.391, 532.997 368.794 C 532.993 375.083, 535.020 400.108, 535.686 402 C 535.976 402.825, 536.397 407.550, 536.619 412.500 C 536.842 417.450, 537.429 422.400, 537.922 423.500 C 538.415 424.600, 539.543 431.800, 540.429 439.500 C 544.871 478.139, 545.679 484.615, 546.235 486 C 546.566 486.825, 547.359 494.025, 547.998 502 C 548.636 509.975, 549.549 517.625, 550.025 519 C 550.501 520.375, 551.075 525.438, 551.300 530.250 C 551.838 541.783, 550.803 541.754, 536.829 529.836 C 533.710 527.176, 530.866 525, 530.509 525 C 530.152 525, 523.415 519.150, 515.538 512 C 507.660 504.850, 500.916 499, 500.549 499 C 500.183 499, 498.222 497.457, 496.191 495.570 C 490.413 490.202, 477.212 479, 476.664 479 C 476.392 479, 474.669 477.618, 472.835 475.928 C 466.305 469.913, 455.092 461, 454.054 461 C 451.853 461, 453.131 459.188, 456.250 457.888 C 458.376 457.002, 463.477 456.552, 471 456.587 C 481.586 456.637, 483.175 456.905, 491 459.964 C 499.737 463.380, 503.086 465.304, 508.785 470.186 C 513.021 473.815, 514.583 473.732, 517.011 469.750 C 519.487 465.689, 519.767 454.384, 517.500 450 C 516.675 448.405, 512.252 443.969, 507.671 440.143 C 500.286 433.974, 491 424.229, 491 422.646 C 491 422.329, 489.650 419.941, 488 417.339 C 486.350 414.737, 485 412.017, 485 411.293 C 485 410.570, 484.155 408.071, 483.121 405.739 C 482.088 403.408, 480.698 398.800, 480.033 395.500 C 479.368 392.200, 478.436 388.755, 477.962 387.844 C 477.488 386.933, 476.791 382.771, 476.412 378.594 L 475.724 371 479.362 371 C 482.296 371, 483 370.625, 483 369.059 C 483 367.991, 482.550 366.840, 482 366.500 C 481.450 366.160, 480.993 365.121, 480.984 364.191 C 480.961 361.631, 467.702 335.846, 465.789 334.639 C 463.287 333.061, 460.362 336.241, 458.535 342.527 C 456.600 349.184, 456.576 367.826, 458.490 377.500 C 460.578 388.052, 462.948 398.317, 463.685 400 C 464.313 401.434, 465.381 405.276, 469.803 422 C 470.894 426.125, 472.107 430.288, 472.500 431.250 C 473.149 432.840, 472.388 433, 464.156 433 C 452.670 433, 437.943 436.108, 430.764 440.047 C 427.570 441.799, 425.197 441.034, 417.438 435.750 C 413.199 432.862, 408.891 430.056, 407.865 429.513 C 406.839 428.970, 406 428.182, 406 427.763 C 406 427.343, 405.534 427, 404.964 427 C 404.394 427, 401.040 424.863, 397.511 422.250 C 393.981 419.637, 388.710 415.843, 385.797 413.817 C 382.884 411.791, 376.359 407.179, 371.299 403.567 C 366.238 399.955, 361.779 397, 361.391 397 C 361.003 397, 358.263 395.132, 355.304 392.849 C 352.344 390.565, 348.203 387.528, 346.101 386.099 C 343.999 384.669, 339.594 381.682, 336.311 379.461 C 325.117 371.886, 320 367.831, 320 366.536 C 320 365.825, 321.462 364.659, 323.250 363.947 C 325.038 363.234, 327.774 361.773, 329.331 360.700 C 331.989 358.868, 353.472 348, 354.436 348 C 354.680 348, 359.069 346.053, 364.190 343.674 C 369.310 341.294, 375.075 338.747, 377 338.014 C 378.925 337.280, 380.928 336.302, 381.450 335.840 C 381.973 335.378, 383.232 335, 384.248 335 C 385.265 335, 387.959 334.100, 390.236 333 C 392.513 331.900, 394.824 331, 395.372 331 C 395.920 331, 398.198 330.167, 400.434 329.148 C 402.670 328.129, 407.788 326.245, 411.807 324.960 C 415.826 323.675, 419.340 322.259, 419.616 321.812 C 419.892 321.365, 421.074 321, 422.243 321 C 423.412 321, 426.198 320.145, 428.434 319.099 C 430.670 318.054, 434.300 316.673, 436.500 316.030 C 438.700 315.387, 441.400 314.471, 442.500 313.994 C 443.600 313.518, 447.875 312.147, 452 310.947 C 456.125 309.747, 460.850 308.178, 462.500 307.460 C 464.150 306.742, 466.850 305.832, 468.500 305.439 C 470.150 305.046, 471.950 304.415, 472.500 304.037 C 473.050 303.659, 475.525 302.801, 478 302.129 C 482.375 300.942, 485.677 299.694, 489.236 297.883 C 490.191 297.397, 492.077 297, 493.427 297 C 494.777 297, 496.129 296.600, 496.432 296.110 C 496.734 295.621, 498.448 294.978, 500.241 294.681 C 502.033 294.385, 505.865 293.639, 508.755 293.025 C 511.646 292.410, 517.721 291.492, 522.255 290.984 C 526.790 290.476, 532.106 289.782, 534.069 289.442 C 537.270 288.887, 537.966 289.197, 540.819 292.447 C 546.737 299.187, 546.293 300.010, 522.423 326.500 C 509.008 341.388, 503.003 349.201, 500.133 355.500 C 499.382 357.150, 498.369 359.281, 497.883 360.236 C 497.397 361.191, 497 363.554, 497 365.486 C 497 369.872, 499.285 370.199, 502.337 366.250 C 503.506 364.738, 509.083 358.469, 514.731 352.320 C 520.379 346.170, 525 340.857, 525 340.511 C 525 340.166, 526.564 338.222, 528.475 336.191 C 543.904 319.801, 556.338 298.296, 557.522 285.952 C 558.053 280.414, 557.812 278.863, 555.820 275.004 C 554.333 272.122, 552.064 269.681, 549.500 268.204 C 545.872 266.113, 544.524 265.934, 535 266.273 C 529.225 266.478, 523.600 267.128, 522.500 267.717 C 521.400 268.306, 517.575 269.471, 514 270.308 C 508.403 271.617, 501.800 273.338, 488.500 276.954 C 485.150 277.865, 482.477 278.774, 479.500 280.015 C 478.400 280.474, 476.375 281.056, 475 281.309 C 470.139 282.202, 459.487 285.226, 458.500 285.992 C 457.950 286.419, 455.925 287.093, 454 287.490 C 452.075 287.887, 449.150 288.773, 447.500 289.459 C 445.850 290.145, 441.350 291.704, 437.500 292.922 C 430.897 295.012, 421.958 298.227, 417.500 300.115 C 416.400 300.581, 411.817 302.298, 407.315 303.932 C 402.814 305.565, 398.314 307.336, 397.315 307.867 C 395.407 308.882, 392.657 310.076, 382 314.520 C 365.304 321.482, 349.834 328.977, 338.349 335.668 C 333.316 338.601, 328.716 341, 328.126 341 C 327.536 341, 325.129 342.135, 322.777 343.523 C 320.425 344.910, 317.104 346.762, 315.398 347.638 C 312.040 349.361, 309 353.669, 309 356.704 C 309 357.747, 308.576 359.028, 308.058 359.550 C 305.459 362.171, 303.855 388.455, 306.154 390.754 C 307.025 391.625, 305.697 393.569, 300.722 398.704 C 294.188 405.447, 289.187 411.733, 285.768 417.500 C 284.161 420.211, 283.176 422.195, 279.611 429.903 C 278.981 431.266, 278.519 437.542, 278.543 444.403 C 278.578 454.334, 278.936 457.210, 280.543 460.466 C 283.075 465.596, 287.124 466.984, 292.339 464.510 C 296.390 462.587, 305.412 451.888, 308.885 444.886 C 313.472 435.642, 309.447 431.886, 302.537 438.962 C 300.368 441.183, 298.072 443, 297.433 443 C 296.053 443, 293 435.449, 293 432.038 C 293 427.046, 299.743 411.706, 306.117 402.200 C 307.703 399.835, 309 397.458, 309 396.918 C 309 393.974, 312.587 395.351, 319.386 400.907 C 323.487 404.258, 327.103 407, 327.421 407 C 327.740 407, 328.788 407.701, 329.750 408.558 C 330.712 409.414, 335.550 413.227, 340.500 417.031 C 345.450 420.835, 350.288 424.634, 351.250 425.473 C 352.212 426.313, 353.395 427, 353.878 427 C 354.360 427, 355.373 427.749, 356.128 428.665 C 357.425 430.238, 378.311 446.358, 381.828 448.500 C 382.731 449.050, 384.064 450.287, 384.791 451.250 C 385.519 452.212, 386.650 453.008, 387.307 453.017 C 387.963 453.026, 390.167 454.726, 392.204 456.794 L 395.908 460.554 386.204 469.380 C 369.718 484.375, 366.890 486.850, 354 497.550 C 347.125 503.258, 340.346 508.956, 338.935 510.214 C 337.524 511.471, 335.674 512.950, 334.823 513.500 C 333.973 514.050, 330.627 516.671, 327.389 519.324 C 324.150 521.977, 320.825 524.419, 320 524.750 C 319.175 525.082, 317.150 526.346, 315.500 527.560 C 313.850 528.775, 309.575 531.277, 306 533.122 C 300.763 535.824, 298.071 536.549, 292.148 536.852 C 282.302 537.357, 277.223 534.863, 274.417 528.148 C 271.984 522.324, 273.004 498.991, 275.954 493 C 276.360 492.175, 277.256 488.350, 277.944 484.500 C 278.632 480.650, 279.601 476.719, 280.097 475.764 C 281.361 473.333, 281.225 466.257, 279.899 465.438 C 279.294 465.063, 278.016 465.599, 277.060 466.629 C 275.287 468.536, 267.166 486.500, 265.050 493.192 L 263.883 496.883 260.179 493.192 C 257.671 490.693, 254.217 488.734, 249.487 487.130 C 219.591 476.991, 198.263 455.483, 191.842 429 C 190.159 422.056, 190.166 402.236, 191.855 395 C 195.366 379.952, 203.480 363.521, 213.742 350.673 C 214.984 349.119, 216 347.485, 216 347.044 C 216 346.602, 212.036 343.076, 207.192 339.208 C 186.916 323.017, 179.815 307.710, 182.197 285.331 C 183.423 273.819, 185.199 266.290, 192.537 241.500 C 195.991 229.833, 197.890 221.240, 199.007 212.229 C 200.064 203.699, 200.393 203, 203.357 203 C 206.334 203, 226.830 198.570, 235 196.160 C 238.575 195.106, 246.900 192.357, 253.500 190.052 C 289.047 177.635, 301.371 177.944, 321.949 191.764 L 325.398 194.081 330.851 187.960 C 333.849 184.594, 338.710 180.061, 341.651 177.888 C 344.593 175.715, 347 173.321, 347 172.569 C 347 171.816, 344.571 168.981, 341.602 166.267 C 330.063 155.721, 309.639 148.918, 290 149.080 C 284.775 149.123, 279.375 149.520, 278 149.962 M 625.419 286.676 C 625.102 287.679, 624.225 289.657, 623.470 291.072 C 620.759 296.152, 618.827 303.308, 619.469 305.895 C 620.082 308.363, 621.410 316.543, 626.062 346.500 C 627.884 358.229, 629.186 368.153, 636.034 422.500 C 637.143 431.300, 638.725 444.800, 639.550 452.500 C 640.375 460.200, 641.445 467.400, 641.928 468.500 C 642.411 469.600, 643.345 475.675, 644.005 482 C 644.664 488.325, 645.585 493.969, 646.051 494.542 C 646.518 495.115, 647.034 498.715, 647.200 502.542 C 647.467 508.733, 647.720 509.500, 649.500 509.500 C 651.922 509.500, 654.996 503.882, 654.998 499.450 C 654.999 497.772, 655.563 495.837, 656.250 495.150 C 657.763 493.636, 658.052 449.697, 656.570 446.500 C 656.060 445.400, 654.837 437.750, 653.853 429.500 C 648.445 384.180, 646.297 367.346, 645.747 366 C 645.411 365.175, 644.586 358.296, 643.914 350.714 C 643.243 343.132, 642.312 336.693, 641.846 336.405 C 641.381 336.117, 641 335.201, 641 334.368 C 641 333.158, 641.528 333.271, 643.635 334.927 C 646.347 337.061, 649.489 337.636, 650.398 336.166 C 650.681 335.707, 649.988 333.344, 648.858 330.916 C 646.684 326.245, 646.641 326.146, 642.463 316 C 633.199 293.503, 629.359 285.503, 627.669 285.176 C 626.728 284.994, 625.742 285.651, 625.419 286.676 M 606.475 354.678 C 605.167 356.675, 604.596 360.184, 604.230 368.463 C 603.791 378.412, 603.963 380.008, 605.880 383.764 C 608.233 388.377, 612.956 391.466, 616.119 390.462 C 619.164 389.496, 621.992 384.086, 621.996 379.219 C 622.001 374.187, 620.003 372.782, 616.872 375.615 C 614.908 377.393, 614.763 377.397, 613.516 375.692 C 611.712 373.225, 610.748 365.866, 611.537 360.599 C 612.737 352.598, 609.964 349.354, 606.475 354.678 M 419.502 362.688 C 419.166 364.785, 418.465 367.281, 417.945 368.236 C 416.686 370.550, 416.730 383.715, 418 384.500 C 418.550 384.840, 419 386.167, 419 387.448 C 419 388.730, 419.815 390.785, 420.810 392.014 C 425.201 397.436, 434 392.058, 434 383.953 C 434 379.282, 432.182 378.029, 428.368 380.071 C 424.653 382.059, 423.916 380.088, 424.231 369 C 424.489 359.887, 424.411 359.487, 422.307 359.188 C 420.461 358.925, 420.017 359.479, 419.502 362.688 M 717 376.300 C 717 378.115, 716.601 380.028, 716.113 380.550 C 715.626 381.072, 714.739 384.425, 714.143 388 C 713.285 393.141, 713.374 396.382, 714.568 403.500 C 716.263 413.609, 719.095 432.621, 722.015 453.500 C 723.092 461.200, 724.861 473.800, 725.947 481.500 C 727.032 489.200, 728.165 498.425, 728.465 502 C 728.765 505.575, 729.458 510.075, 730.006 512 C 731.330 516.651, 733.772 542.910, 735.631 572.500 C 736.461 585.700, 737.559 597.281, 738.070 598.236 C 738.582 599.191, 739 602.202, 739 604.927 C 739 607.652, 739.478 610.178, 740.063 610.539 C 741.352 611.336, 745 608.227, 745 606.331 C 745 605.584, 745.397 604.191, 745.883 603.236 C 749.483 596.161, 749.500 595.968, 749.468 564.010 C 749.447 543.101, 749.044 531.017, 748.281 528.425 C 747.646 526.266, 745.966 514.825, 744.548 503 C 743.130 491.175, 741.056 474.975, 739.939 467 C 738.822 459.025, 737.131 445.525, 736.180 437 C 735.230 428.475, 734.099 420.938, 733.667 420.250 C 732.526 418.433, 734.357 418.720, 737.115 420.790 C 738.427 421.774, 740.753 423.121, 742.284 423.784 C 744.587 424.780, 745.164 424.735, 745.629 423.524 C 746.180 422.088, 729.355 387.102, 723.616 377.750 C 720.051 371.940, 717 371.272, 717 376.300 M 841.297 421.049 C 834.468 422.398, 833.581 423.301, 831.082 431.445 C 823.036 457.669, 805.659 475.886, 779 486.044 C 773.506 488.137, 768.479 491.575, 765.635 495.184 L 763.022 498.500 763.011 495.450 C 762.997 491.626, 761.308 489.765, 758.982 491.010 C 757.590 491.754, 756.947 491.209, 755.542 488.094 C 754.075 484.840, 753.923 482.585, 754.535 473.149 C 755.178 463.220, 755.074 461.966, 753.560 461.385 C 751.101 460.441, 749.844 462.208, 749.254 467.436 C 748.969 469.971, 748.344 472.287, 747.867 472.582 C 747.390 472.877, 747 478.310, 747 484.655 C 747 493.492, 747.379 496.833, 748.619 498.932 C 750.619 502.317, 756.131 505.410, 758.707 504.593 C 760.457 504.038, 760.626 504.532, 760.639 510.242 C 760.648 514.025, 761.290 517.716, 762.262 519.575 C 764.919 524.655, 771.164 529.468, 779.564 532.911 C 795.968 539.634, 806.561 546.352, 814.118 554.826 C 838.026 581.635, 839.082 622.757, 816.813 659.852 C 814.716 663.346, 813 666.780, 813 667.483 C 813 668.186, 816.251 670.952, 820.225 673.630 C 849.329 693.247, 854.039 711.252, 840.591 751.479 C 835.064 768.014, 832.424 776.666, 831.585 781 C 831.318 782.375, 830.363 786.611, 829.463 790.414 C 828.562 794.216, 827.300 803.441, 826.660 810.914 L 825.495 824.500 815.997 825.174 C 806.372 825.858, 790.980 828.300, 785.500 830.013 C 783.850 830.529, 775.049 833.407, 765.942 836.409 C 745.496 843.149, 737.664 845, 729.594 845 C 719.853 845, 709.586 840.861, 703.242 834.377 C 700.441 831.515, 699.352 831.946, 695.215 837.555 C 693.408 840.005, 689.583 843.857, 686.715 846.116 C 679.179 852.050, 679.113 852.390, 684.499 857.551 C 703.536 875.791, 724.399 879.270, 759.275 870.021 C 763.550 868.887, 768.950 867.316, 771.275 866.529 C 773.599 865.742, 778.200 864.362, 781.500 863.462 C 803.816 857.379, 806.633 857.003, 830 856.986 C 841.825 856.977, 852.083 856.600, 852.795 856.148 C 853.752 855.541, 854.219 850.268, 854.587 835.913 C 855.395 804.358, 857.587 791.928, 867.974 760 C 876.254 734.552, 877.954 722.494, 875.601 705.932 C 873.104 688.356, 868.940 678.838, 858.862 667.672 L 852.790 660.944 854.852 655.722 C 856.900 650.533, 859.830 640.071, 861.915 630.500 C 862.514 627.750, 863.413 620.662, 863.913 614.749 C 867.807 568.670, 847.832 529.855, 811.467 512.838 L 804.924 509.776 811.212 506.138 C 819.047 501.605, 833.861 486.935, 840.636 477 C 849.937 463.362, 857.271 447.429, 861.954 430.687 C 864.813 420.469, 864.416 419.964, 853.628 420.110 C 849.157 420.170, 843.608 420.593, 841.297 421.049 M 342.326 435.207 C 340.427 437.688, 337 450.076, 337 454.462 C 337 456.893, 336.550 459.160, 336 459.500 C 334.693 460.308, 334.732 463.490, 336.104 467.929 C 338.023 474.139, 339.412 476.177, 342.641 477.512 C 345.394 478.651, 346.166 478.577, 348.903 476.913 C 352.389 474.793, 355.610 469.031, 354.673 466.591 C 354.276 465.556, 352.841 465, 350.567 465 C 347.965 465, 346.761 464.424, 345.863 462.750 C 344.349 459.930, 344.418 448.406, 345.960 446.548 C 347.723 444.424, 346.884 434.592, 344.908 434.216 C 344.032 434.050, 342.871 434.496, 342.326 435.207 M 523.734 474.076 C 518.906 476.625, 513.062 482.898, 513.027 485.570 C 513.012 486.709, 514.552 489.453, 516.448 491.668 L 519.896 495.696 515.948 499.551 C 511.341 504.050, 511.037 505.684, 514.561 507.023 C 517.375 508.093, 521.052 506.415, 532.364 498.897 C 535.589 496.754, 538.575 495, 538.999 495 C 540.571 495, 543.111 489.796, 542.811 487.192 C 542.436 483.946, 539.482 483.200, 535.318 485.299 C 530.071 487.944, 527.374 488.128, 524.853 486.014 C 522.890 484.368, 522.741 483.882, 523.953 483.086 C 524.752 482.561, 526.650 482.380, 528.170 482.684 C 530.435 483.137, 531.144 482.778, 532.092 480.698 C 533.072 478.546, 532.914 477.689, 531.056 475.079 C 528.496 471.484, 528.615 471.500, 523.734 474.076 M 410.375 478.783 C 409.206 479.727, 407.220 481.175, 405.960 482 C 402.470 484.286, 390.344 494.702, 382.385 502.250 C 378.470 505.962, 374.943 509, 374.546 509 C 374.149 509, 367.448 515.048, 359.654 522.440 C 351.860 529.832, 343.462 537.397, 340.991 539.252 C 324.186 551.868, 320.891 553.995, 311 558.606 C 307.975 560.016, 304.825 561.513, 304 561.934 C 302.671 562.610, 298.043 571.035, 295.997 576.500 C 295.586 577.600, 294.700 579.850, 294.029 581.500 C 290.461 590.277, 287.706 614.716, 289.754 619.430 C 295.411 632.449, 298.809 636, 305.610 636 C 313.345 636, 319.144 632.124, 334 617.023 C 341.425 609.476, 348.625 601.912, 350 600.216 C 351.375 598.519, 352.978 597.101, 353.563 597.065 C 354.148 597.029, 355.948 595.609, 357.563 593.908 C 360.242 591.087, 372.905 583.080, 379 580.353 C 380.375 579.738, 385.627 577.382, 390.671 575.117 C 395.716 572.853, 400.334 571, 400.935 571 C 401.536 571, 402.809 570.567, 403.764 570.038 C 410.130 566.512, 427.599 560.461, 438.500 558.008 C 457.273 553.782, 462.686 551.645, 469.323 545.842 L 473.147 542.500 469.040 534.677 C 466.781 530.375, 463.810 525.075, 462.436 522.899 C 458.253 516.272, 446.761 503.850, 435.340 493.610 C 429.378 488.264, 423.375 482.839, 422 481.555 C 416.920 476.809, 413.753 476.054, 410.375 478.783 M 467.359 500.750 C 471.464 506.187, 473.316 509.204, 476.106 515 C 479.998 523.086, 481 526.006, 481 529.257 C 481 531.251, 481.450 533.160, 482 533.500 C 483.224 534.257, 483.341 545.671, 482.133 546.418 C 481.656 546.713, 481.040 548.955, 480.764 551.401 C 479.876 559.276, 473.787 566.911, 463.368 573.211 C 460.810 574.758, 448.315 580.881, 445.500 581.967 C 444.400 582.391, 441.250 583.645, 438.500 584.753 C 435.750 585.861, 430.350 587.760, 426.500 588.973 C 422.650 590.186, 418.600 591.557, 417.500 592.020 C 416.400 592.482, 413.700 593.381, 411.500 594.018 C 409.300 594.654, 405.592 596.035, 403.261 597.087 C 400.929 598.139, 398.561 599, 397.997 599 C 397.434 599, 396.191 599.438, 395.236 599.973 C 394.281 600.508, 390.575 602.295, 387 603.944 C 383.425 605.593, 379.611 607.517, 378.524 608.221 C 357.180 622.037, 350.993 628.672, 351.008 637.730 C 351.016 643.178, 352.646 654.529, 353.846 657.500 C 357.760 667.190, 361.791 672.812, 367.500 676.541 C 372.093 679.540, 379.320 682.981, 381.050 682.991 C 381.902 682.996, 383.027 683.414, 383.550 683.919 C 384.956 685.280, 395.495 687, 402.434 687.001 C 409.501 687.003, 425.045 685.040, 426.500 683.963 C 427.050 683.556, 430.001 682.670, 433.057 681.995 C 437.834 680.940, 438.799 680.328, 439.928 677.634 C 445.570 664.174, 457.397 642.547, 459.317 642.177 C 462.079 641.646, 461.352 646.333, 456.475 660.488 C 454.014 667.632, 452 673.819, 452 674.238 C 452 675.957, 457.468 674.304, 469.739 668.875 C 472.071 667.844, 474.484 667, 475.103 667 C 475.722 667, 477.864 666.120, 479.864 665.043 C 481.864 663.967, 486.425 661.705, 490 660.016 C 502.924 653.911, 513.330 647.298, 522.750 639.202 C 528.926 633.894, 529.940 631.823, 528.117 628.236 C 527.632 627.281, 525.760 622.900, 523.957 618.500 C 520.880 610.991, 517.319 603.118, 509.484 586.500 C 502.038 570.707, 501.672 569.452, 502.308 561.868 C 502.766 556.403, 503.482 554.057, 505.500 551.411 C 506.931 549.535, 508.649 548, 509.319 548 C 510.508 548, 527 565.239, 527 566.483 C 527 566.829, 528.256 568.325, 529.790 569.806 C 531.325 571.288, 533.208 573.751, 533.975 575.280 C 535.190 577.702, 535.170 578.259, 533.816 579.613 C 532.577 580.851, 531.538 580.967, 528.693 580.181 C 525.126 579.196, 525.125 579.197, 526.096 581.848 C 527.145 584.708, 529.726 590.274, 534.051 599 C 543.640 618.346, 543.512 636.001, 533.675 651 C 530.498 655.843, 520.088 667, 518.746 667 C 518.296 667, 516.932 667.906, 515.714 669.013 C 508.423 675.642, 493.808 686.272, 485.173 691.229 C 471.680 698.974, 468.231 700.689, 453.273 707.097 C 447.469 709.583, 447.605 708.927, 450.697 719.500 C 454.772 733.432, 458.842 737.424, 468.197 736.663 C 481.780 735.558, 499.670 721.565, 514.500 700.447 C 524.952 685.563, 547.404 663.284, 557.293 657.983 L 560.500 656.265 560.779 638.382 C 560.936 628.328, 560.636 619.624, 560.095 618.500 C 559.565 617.400, 558.928 606.600, 558.679 594.500 C 558.430 582.400, 557.939 571.825, 557.587 571 C 557.236 570.175, 553.697 567.956, 549.724 566.068 C 545.751 564.181, 540.086 560.806, 537.135 558.568 C 534.184 556.331, 530.712 553.796, 529.420 552.935 C 528.127 552.074, 525.700 549.936, 524.026 548.185 C 522.352 546.433, 520.720 545, 520.400 545 C 520.080 545, 512.546 538.092, 503.659 529.648 C 494.771 521.205, 484.800 512.004, 481.500 509.201 C 478.200 506.399, 474.234 502.957, 472.687 501.553 C 471.140 500.149, 469.522 499, 469.092 499 C 468.662 499, 467.495 498.100, 466.500 497 C 462.649 492.745, 463.230 495.283, 467.359 500.750 M 628.713 513.234 C 621.420 524.636, 621.410 525.035, 628.250 531.631 C 637.342 540.399, 642.704 543.014, 644.700 539.654 C 645.140 538.914, 647.193 536.351, 649.263 533.959 L 653.026 529.609 657.263 533.654 C 659.593 535.879, 663.186 538.944, 665.247 540.466 C 668.827 543.109, 669.106 543.160, 671.483 541.603 C 672.852 540.706, 674.756 538.741, 675.713 537.236 C 676.670 535.731, 677.689 534.275, 677.977 534 C 678.265 533.725, 679.306 532.050, 680.291 530.277 C 681.993 527.213, 681.996 526.917, 680.349 524.277 C 678.132 520.723, 668.789 511.013, 667.579 511.006 C 667.072 511.003, 665.867 510.284, 664.900 509.410 C 662.378 507.127, 660.016 508.354, 656 514.031 C 654.075 516.752, 651.825 518.979, 651 518.980 C 650.175 518.980, 646.575 516.794, 643 514.121 C 633.359 506.913, 632.780 506.877, 628.713 513.234 M 389.284 519.750 C 388.138 521.813, 386.238 525.231, 385.063 527.346 C 383.869 529.496, 383.187 532.012, 383.516 533.052 C 383.841 534.075, 387.287 537.856, 391.175 541.456 C 396.283 546.185, 398.999 548, 400.969 548 C 403.921 548, 407.675 545.261, 409.411 541.841 C 411.828 537.081, 413.389 537.296, 420.142 543.319 C 428.170 550.481, 431.409 550.883, 435.666 545.250 C 442.022 536.840, 442.474 533.787, 438 529.500 C 436.350 527.919, 435 526.047, 435 525.339 C 435 524.631, 433.762 523.408, 432.250 522.621 C 430.738 521.834, 428.409 520.022, 427.076 518.595 C 425.742 517.168, 423.867 516, 422.909 516 C 421.950 516, 418.955 518.520, 416.254 521.600 L 411.342 527.200 406.671 523.907 C 404.102 522.097, 402 520.252, 402 519.807 C 402 519.363, 401.380 519, 400.622 519 C 399.865 519, 398.685 518.325, 398 517.500 C 397.315 516.675, 395.543 516, 394.062 516 C 391.986 516, 390.890 516.861, 389.284 519.750 M 634.658 588.459 C 633.176 589.583, 632.804 591.285, 632.752 597.190 C 632.684 604.993, 633.806 609.573, 637.680 617.303 C 639.747 621.427, 640.400 622.009, 642.294 621.419 C 643.507 621.040, 644.725 620.404, 645 620.005 C 645.275 619.606, 646.850 618.580, 648.500 617.725 C 650.150 616.870, 653.023 614.586, 654.883 612.650 C 658.027 609.379, 658.232 608.768, 657.776 604.025 C 657.425 600.370, 656.465 597.910, 654.393 595.357 C 648.762 588.420, 639.146 585.059, 634.658 588.459 M 441.593 610.108 C 437.739 614.395, 437 615.865, 437 619.251 C 437 622.939, 437.610 623.877, 444.078 630.143 C 450.014 635.894, 451.705 637, 454.565 637 C 458.113 637, 457.710 637.411, 465.245 626.116 C 466.204 624.677, 466.992 622.813, 466.995 621.973 C 467 620.335, 454.968 608.303, 451.264 606.244 C 447.652 604.236, 446.436 604.722, 441.593 610.108 M 169.048 683.430 C 164.230 690.433, 160.268 699.861, 157.438 711.055 C 154.965 720.837, 154.846 722.444, 155.251 740.451 C 155.649 758.119, 155.913 760.334, 158.887 771 C 163.275 786.734, 165.798 797.291, 167.012 805 C 169.254 819.233, 170.962 836.999, 170.980 846.282 L 171 856.063 181.489 855.385 C 192.774 854.655, 204.458 855.809, 219 859.088 C 228.635 861.261, 230.429 861.737, 245 865.976 C 250.775 867.656, 257.300 869.526, 259.500 870.131 C 261.700 870.737, 264.625 871.578, 266 872 C 267.375 872.422, 270.300 873.247, 272.500 873.832 C 293.451 879.406, 293.391 879.396, 306.500 879.353 C 319.142 879.312, 319.727 879.213, 327.733 875.755 C 336.756 871.858, 345.631 865.846, 353.767 858.118 L 359.033 853.115 368.267 857.830 C 396.116 872.050, 426.770 875.001, 452.500 865.939 C 475.645 857.786, 496.688 838.391, 509.132 813.738 C 510.781 810.471, 512.259 807.956, 512.416 808.149 C 512.573 808.342, 514.204 811.425, 516.041 815 C 523.954 830.397, 536.856 842.572, 556.006 852.711 C 560.128 854.893, 564.400 856.931, 565.500 857.239 C 566.600 857.548, 570.650 858.973, 574.500 860.407 C 582.733 863.472, 595.712 866.325, 597.793 865.526 C 598.917 865.095, 599.111 863.876, 598.635 860.233 C 598.295 857.630, 597.559 851.041, 597 845.592 C 596.440 840.142, 595.531 835.140, 594.980 834.476 C 594.429 833.812, 591.170 832.694, 587.739 831.993 C 584.308 831.291, 581.072 830.330, 580.550 829.858 C 580.027 829.386, 579.010 829, 578.289 829 C 576.066 829, 567.836 824.891, 560.658 820.198 C 548.115 811.996, 541.996 802.845, 532.084 777.460 C 527.259 765.103, 522.218 760.857, 512.371 760.857 C 503.037 760.857, 496.537 765.878, 491.853 776.706 C 477.582 809.692, 464.153 824.713, 441.798 832.691 C 435.235 835.033, 433.039 835.299, 420 835.328 C 407.239 835.357, 404.480 835.052, 397 832.789 C 382.880 828.518, 367.495 821.610, 358.706 815.596 C 356.619 814.168, 354.308 813, 353.571 813 C 352.834 813, 349.142 816.610, 345.366 821.022 C 329.797 839.212, 315.592 846.967, 297.799 846.989 C 286.710 847.003, 282.809 845.959, 253 834.995 C 232.514 827.460, 220.344 824.201, 205.500 822.278 C 199.530 821.504, 199.499 821.482, 199.227 818 C 197.925 801.313, 193.961 779.423, 190.558 770.128 C 185.296 755.752, 183.497 743.171, 184.930 730.750 C 186.028 721.230, 188.754 711.374, 192.117 704.764 C 193.636 701.776, 193.130 700.573, 188.536 696.250 C 186.081 693.939, 181.765 689.113, 178.945 685.524 C 176.125 681.936, 173.430 679, 172.957 679 C 172.483 679, 170.724 680.994, 169.048 683.430 M 621.255 683.534 C 618.889 685.191, 614.450 698.123, 615.398 700.595 C 616.051 702.297, 615.127 705, 613.893 705 C 613.402 705, 613 704.377, 613 703.615 C 613 701.073, 604.030 691.294, 599.489 688.885 C 594.520 686.249, 592.557 686.717, 590.217 691.098 C 588.887 693.588, 589.293 699.810, 590.993 702.987 C 591.504 703.942, 595.226 706.356, 599.263 708.351 C 606.315 711.835, 606.735 712.244, 609.913 718.739 C 613.005 725.057, 615.309 728, 617.165 728 C 619.481 728, 621.201 721.143, 621.649 710.129 C 621.909 703.733, 622.328 697.487, 622.580 696.250 C 623.111 693.643, 625.189 693.317, 627.042 695.551 C 627.874 696.554, 629.595 696.995, 631.914 696.801 C 635.418 696.507, 635.507 696.394, 635.799 691.881 C 636.067 687.759, 635.762 686.977, 632.973 684.631 C 629.401 681.625, 624.619 681.178, 621.255 683.534" stroke="none" fill="#0494e5" fill-rule="evenodd"/><path d="M 498 40.882 C 482.289 56.838, 471.866 64.397, 447.500 77.506 C 422.303 91.062, 404.378 108.118, 395.989 126.520 C 392.150 134.942, 389.333 145.293, 388.399 154.405 L 387.724 161.003 383.612 162.109 C 368.064 166.293, 351.944 173.714, 342.389 181.086 C 324.404 194.961, 313.573 213.756, 307.863 241 C 305.935 250.198, 306.185 282.832, 308.268 293.990 C 309.141 298.659, 309.689 302.644, 309.487 302.846 C 309.286 303.047, 306.281 302.323, 302.810 301.237 C 291.087 297.566, 283.716 296.527, 269.500 296.541 C 250.829 296.560, 239.218 299.400, 222 308.158 C 210.455 314.030, 203 319.395, 203 321.830 C 203 325.819, 219.894 341, 224.333 341 C 225.201 341, 228.069 339.739, 230.706 338.197 C 242.892 331.072, 253.315 328.500, 270 328.500 C 284.954 328.500, 291.670 329.667, 303 334.232 C 323.198 342.371, 326.302 342.677, 335.286 337.412 C 341.990 333.483, 343.301 332.165, 345.517 327.128 C 347.929 321.645, 347.338 315.171, 343.442 304.410 C 335.470 282.388, 334.307 264.598, 339.528 244.553 C 343.736 228.399, 355.241 212.226, 369.670 202.184 C 379.831 195.112, 396.570 189.429, 410.359 188.369 C 415.408 187.981, 419.442 187.172, 420.064 186.423 C 420.815 185.517, 420.815 183.453, 420.064 179.387 C 416.235 158.677, 422.801 136.260, 436.854 122.059 C 445.317 113.506, 451.780 109.207, 471.038 99.319 C 479.583 94.931, 492.079 87.664, 498.806 83.170 C 505.533 78.677, 511.684 75, 512.475 75 C 514.288 75, 521.075 78.996, 534.206 87.794 C 539.868 91.587, 551.529 98.303, 560.119 102.718 C 568.710 107.132, 578.199 112.561, 581.206 114.783 C 591.785 122.598, 598.656 132.637, 601.042 143.762 C 601.658 146.633, 602.537 149.214, 602.994 149.497 C 603.452 149.780, 607.803 150.219, 612.664 150.472 C 617.738 150.737, 624.217 151.828, 627.883 153.034 C 632.178 154.448, 634.595 154.805, 635.275 154.125 C 636.467 152.933, 633.859 137.021, 630.830 127 C 626.258 111.873, 617.370 98.767, 606.230 90.727 C 603.628 88.849, 592.050 82.489, 580.500 76.592 C 551.605 61.841, 539.374 53.575, 524.654 38.850 C 518.139 32.332, 512.514 27.038, 512.154 27.085 C 511.794 27.132, 505.425 33.341, 498 40.882 M 686.500 200.634 C 682.045 205.796, 676.329 214.276, 674.923 217.810 C 674.252 219.497, 674.528 221.269, 675.950 224.390 C 688.277 251.449, 689.557 265.292, 682.664 297 C 678.639 315.517, 679.582 323.216, 686.811 330.862 C 694.379 338.868, 701.943 339.776, 716.512 334.430 C 727.120 330.537, 730.991 329.318, 737 327.978 C 740.025 327.303, 743.805 326.357, 745.399 325.875 C 750.392 324.368, 772.214 324.841, 779.169 326.608 C 793.059 330.136, 806.673 339.379, 815.831 351.500 C 818.573 355.129, 826.075 370.412, 828.840 378 C 831.004 383.940, 834.571 399.543, 835.540 407.308 C 835.894 410.148, 836.736 412.345, 837.595 412.675 C 838.396 412.982, 844.141 412.666, 850.362 411.973 C 859.550 410.949, 862.961 410.955, 868.535 412.007 C 881.844 414.518, 891.930 419.762, 901.066 428.920 C 909.078 436.952, 917.116 449.208, 929.317 472 C 935.174 482.940, 943.520 496.537, 949.073 504.184 L 953.926 510.867 947.136 517.684 C 940.541 524.304, 936.254 530.757, 927.816 546.767 C 917.308 566.706, 913.418 572.398, 904.365 581.089 C 895.824 589.287, 891.262 592.184, 882.435 595.017 C 870.381 598.884, 871 598.426, 871 603.478 C 871 607.931, 868.253 625.780, 867.339 627.259 C 867.082 627.676, 867.171 628.962, 867.537 630.117 C 868.164 632.091, 868.651 632.174, 875.734 631.510 C 905.276 628.742, 928.778 608.432, 955.591 562.500 C 958.802 557, 963.889 549.125, 966.895 545 C 971.889 538.148, 989.596 519.587, 996.250 514.228 C 999.742 511.416, 999.707 510.417, 996.051 508.526 C 991.834 506.346, 980.274 494.826, 973.073 485.628 C 965.486 475.937, 960.710 468.652, 949.714 450 C 933.749 422.919, 924.993 410.274, 915.735 400.929 C 901.344 386.402, 887.486 380, 868.750 379.224 C 861.053 378.905, 858 378.424, 858 377.528 C 858 375.792, 853.336 361.263, 851.412 357.005 C 838.293 327.977, 821.617 309.314, 799.500 298.907 C 785.994 292.551, 778.641 291, 762.020 291 C 744.278 291, 732.938 293.200, 716.213 299.886 C 713.305 301.049, 710.770 302, 710.579 302 C 710.388 302, 710.930 298.738, 711.784 294.750 C 714.127 283.797, 714.103 246.158, 711.746 235.774 C 709.370 225.308, 707.480 219.825, 703.275 211.205 C 698.726 201.878, 694.461 196, 692.244 196 C 691.285 196, 688.700 198.085, 686.500 200.634 M 143.500 384.641 C 125.660 388.292, 110.468 397.922, 96.394 414.500 C 89.199 422.976, 86.088 427.840, 78.441 442.566 C 66.549 465.466, 61.847 472.975, 50.915 486.518 C 45.291 493.486, 34.689 503.952, 28.978 508.174 C 25.176 510.985, 25.228 512.329, 29.250 515.119 C 37.308 520.709, 52.101 534.656, 57.763 542 C 62.869 548.623, 67.312 555.735, 74.944 569.500 C 87.548 592.233, 97.205 606.163, 109.777 619.746 C 114.747 625.116, 124.669 630.993, 134.500 634.390 C 140.548 636.480, 154.081 638.997, 159.281 638.999 C 161.433 638.999, 163.229 639.539, 163.449 640.250 C 163.662 640.938, 164.632 644.200, 165.606 647.500 C 174.874 678.898, 202.057 706.855, 233 716.812 C 254.939 723.871, 275.719 724.184, 301 717.835 C 303.475 717.214, 305.927 716.321, 306.450 715.853 C 306.972 715.384, 308.258 715, 309.307 715 C 310.719 715, 311.035 715.455, 310.526 716.750 C 310.148 717.712, 309.402 721.167, 308.869 724.427 C 308.336 727.687, 307.743 730.612, 307.551 730.927 C 307.360 731.242, 306.658 737.410, 305.992 744.634 C 304.287 763.124, 306.417 780.895, 312.339 797.571 C 316.116 808.205, 325.594 823.978, 328.215 823.991 C 331.214 824.007, 339.055 816.466, 345.613 807.261 L 348.727 802.891 344.998 794.195 C 339.636 781.689, 337.908 774.108, 337.287 760.358 C 336.508 743.108, 338.592 730.349, 345.267 711.500 C 349.518 699.496, 347.408 689.929, 338.903 682.649 C 332.033 676.769, 323.387 676.585, 309 682.014 C 292.764 688.140, 286.698 689.277, 270 689.325 C 256.630 689.364, 253.469 689.056, 247 687.085 C 215.187 677.395, 193.480 650.170, 187.930 613 C 187.232 608.325, 186.259 603.970, 185.769 603.323 C 184.850 602.112, 182.076 602.285, 172.110 604.177 C 164.816 605.561, 151.392 605.468, 145.950 603.996 C 138.670 602.027, 129.361 597.116, 125.136 593.016 C 118.867 586.933, 111.807 575.906, 100.475 554.500 C 97.854 549.550, 95.194 544.825, 94.562 544 C 93.930 543.175, 92.824 541.318, 92.104 539.874 C 90.441 536.539, 77.721 519.479, 73.896 515.452 C 72.303 513.776, 71 512.148, 71 511.834 C 71 511.521, 73.588 507.883, 76.750 503.751 C 79.912 499.619, 83.175 495.233, 84 494.004 C 84.825 492.774, 86.274 490.754, 87.221 489.514 C 90.185 485.630, 98.491 470.792, 104.069 459.418 C 107.014 453.413, 110.934 445.948, 112.781 442.829 C 119.549 431.400, 131.123 423.302, 145.927 419.636 C 149.462 418.760, 152.718 417.472, 153.162 416.772 C 153.606 416.072, 153.976 413.621, 153.985 411.324 C 153.993 409.026, 154.912 402.520, 156.027 396.864 C 157.141 391.209, 157.831 386.001, 157.558 385.291 C 157.079 384.043, 148.386 383.641, 143.500 384.641 M 796.500 676.362 C 783.190 684.492, 772.673 687.392, 756.500 687.392 C 742.415 687.392, 728.659 684.977, 711.224 679.444 C 700.802 676.136, 692.154 676.134, 686.518 679.437 C 675.925 685.644, 673.441 696.553, 678.944 712.691 C 683.563 726.234, 684.783 731.549, 686.137 744.033 C 689.490 774.951, 678.423 803.311, 656.654 819.585 C 642.637 830.064, 631.495 834.132, 607.250 837.623 C 603.392 838.178, 603.276 839.042, 605.500 850.662 C 608.563 866.668, 606.607 883.348, 600.546 892.915 C 594.214 902.909, 587.060 908.167, 562.016 921.240 C 540.116 932.671, 529.187 939.234, 520.749 946.026 L 512.275 952.845 507.388 948.792 C 496.614 939.858, 485.045 932.765, 462 920.962 C 443.892 911.688, 431.878 901.989, 427.184 892.854 C 425.954 890.459, 423.946 885.575, 422.723 882 L 420.500 875.500 408 874.918 C 401.125 874.598, 395.050 874.208, 394.500 874.050 C 391.588 873.215, 391.001 874.181, 391.036 879.750 C 391.124 894.011, 398.056 909.641, 409.853 922.182 C 421.154 934.195, 428.859 939.325, 457.699 954.036 C 483.214 967.052, 494.314 975.472, 506.760 991.250 C 511.438 997.181, 514.401 998.463, 515.491 995.027 C 516.412 992.126, 526.505 979.216, 532.068 973.824 C 539.448 966.670, 547.080 961.925, 565.568 952.993 C 598.736 936.969, 601.976 934.993, 613.105 924.007 C 621.069 916.146, 627.624 905.843, 630.607 896.500 C 632.829 889.542, 634.956 876.581, 634.980 869.861 L 635 864.223 638.750 863.551 C 657.506 860.191, 676.901 849.343, 690.825 834.423 C 706.768 817.340, 715.254 796.854, 718.126 768.519 C 719.478 755.178, 718.312 737.625, 715.053 722.250 C 714.091 717.712, 713.444 714, 713.615 714 C 713.786 714, 716.207 714.899, 718.994 715.998 C 731.455 720.909, 755.484 722.743, 770.937 719.962 C 779.707 718.383, 794.987 713.545, 801.350 710.332 C 812.145 704.880, 826 693.415, 826 689.932 C 826 688.955, 823.638 686.161, 820.750 683.725 C 815.517 679.310, 804.988 671.961, 804.013 672.043 C 803.731 672.067, 800.350 674.010, 796.500 676.362 M 413.313 717.750 C 411.467 722.118, 410.447 733.238, 411.418 738.413 C 412.596 744.694, 420.171 749.188, 424.602 746.235 C 426.257 745.132, 429.053 738.697, 429.291 735.444 C 429.542 732.003, 426.813 730.954, 424.069 733.438 C 422.428 734.923, 422.177 734.918, 420.906 733.387 C 420.091 732.404, 419.373 728.605, 419.154 724.111 C 418.637 713.491, 416.224 710.863, 413.313 717.750" stroke="none" fill="#04537d" fill-rule="evenodd"/></svg>