<svg class="svg-icon" style="width: 1em; height: 1em;vertical-align: middle;fill: currentColor;overflow: hidden;"
    viewBox="0 0 1024 1024" version="1.1" xmlns="http://www.w3.org/2000/svg" aria-hidden="true" focusable="false">
    <path
        d="M502.72 924.8a83.52 83.52 0 0 0-32-4.48h-49.6l85.12-98.88a74.56 74.56 0 0 0 23.68-50.56c0-32-19.52-48.64-59.84-50.88h-131.52a59.84 59.84 0 0 0-32 7.36 43.52 43.52 0 0 0-20.48 37.12 41.92 41.92 0 0 0 27.2 39.68 69.44 69.44 0 0 0 32 4.16h42.24l-93.76 107.84A64 64 0 0 0 275.2 960a45.12 45.12 0 0 0 20.16 39.36 57.92 57.92 0 0 0 36.8 9.6H480a43.84 43.84 0 0 0 49.6-44.16 41.92 41.92 0 0 0-26.88-40z m448-256a122.88 122.88 0 0 0-46.08-6.4H800l152.64-177.28a110.72 110.72 0 0 0 36.16-75.84c0-67.84-64-71.36-87.04-72.32H688a89.6 89.6 0 0 0-47.04 10.56 60.8 60.8 0 0 0-28.16 51.84 58.56 58.56 0 0 0 38.08 55.36 104.64 104.64 0 0 0 46.08 6.08h90.56l-164.16 192a93.76 93.76 0 0 0-28.16 64 64 64 0 0 0 28.48 56 84.16 84.16 0 0 0 54.08 13.44h241.6a70.4 70.4 0 0 0 64-32 69.12 69.12 0 0 0 7.04-29.76 58.24 58.24 0 0 0-39.04-56.64z m-428.48-178.88a151.36 151.36 0 0 0-55.36-7.36h-192l242.56-281.92a133.76 133.76 0 0 0 44.8-90.56c0-74.24-66.88-76.48-98.56-78.08h-297.6a100.16 100.16 0 0 0-53.76 11.52A62.08 62.08 0 0 0 83.84 96a58.88 58.88 0 0 0 39.04 56.64A125.12 125.12 0 0 0 178.56 160H352l-258.24 299.84a108.16 108.16 0 0 0-34.24 74.24 66.24 66.24 0 0 0 30.08 59.52 96 96 0 0 0 61.76 14.4h333.44a76.16 76.16 0 0 0 70.08-32 72.32 72.32 0 0 0 7.36-32 58.24 58.24 0 0 0-40-54.08z"
        fill="#6B7280" />
</svg>